<?xml version="1.0" encoding="iso-8859-1"?>
<!-- Uploaded to: SVG Repo, www.svgrepo.com, Generator: SVG Repo Mixer Tools -->
<svg height="800px" width="800px" version="1.1" id="Layer_1" xmlns="http://www.w3.org/2000/svg" xmlns:xlink="http://www.w3.org/1999/xlink" 
	 viewBox="0 0 503.322 503.322" xml:space="preserve">
<g>
	<polygon style="fill:#CAD3DB;" points="0,503.322 242.983,503.322 242.983,104.136 0,104.136 	"/>
	<g>
		<polygon style="fill:#E6EEF3;" points="242.983,503.322 503.322,503.322 503.322,0 242.983,0 		"/>
		<polygon style="fill:#E6EEF3;" points="43.39,199.593 95.458,199.593 95.458,147.525 43.39,147.525 		"/>
		<polygon style="fill:#E6EEF3;" points="147.525,199.593 199.593,199.593 199.593,147.525 147.525,147.525 		"/>
	</g>
	<g>
		<polygon style="fill:#CAD3DB;" points="295.051,295.051 347.119,295.051 347.119,242.983 295.051,242.983 		"/>
		<polygon style="fill:#CAD3DB;" points="399.186,295.051 451.254,295.051 451.254,242.983 399.186,242.983 		"/>
		<polygon style="fill:#CAD3DB;" points="295.051,390.508 347.119,390.508 347.119,338.441 295.051,338.441 		"/>
		<polygon style="fill:#CAD3DB;" points="399.186,390.508 451.254,390.508 451.254,338.441 399.186,338.441 		"/>
	</g>
	<g>
		<polygon style="fill:#E6EEF3;" points="43.39,295.051 95.458,295.051 95.458,242.983 43.39,242.983 		"/>
		<polygon style="fill:#E6EEF3;" points="147.525,295.051 199.593,295.051 199.593,242.983 147.525,242.983 		"/>
		<polygon style="fill:#E6EEF3;" points="43.39,390.508 95.458,390.508 95.458,338.441 43.39,338.441 		"/>
		<polygon style="fill:#E6EEF3;" points="147.525,390.508 199.593,390.508 199.593,338.441 147.525,338.441 		"/>
		<polygon style="fill:#E6EEF3;" points="95.458,503.322 147.525,503.322 147.525,433.898 95.458,433.898 		"/>
	</g>
	<polygon style="fill:#9AABB4;" points="321.085,503.322 373.153,503.322 373.153,433.898 321.085,433.898 	"/>
	<polygon style="fill:#CAD3DB;" points="373.153,503.322 425.22,503.322 425.22,433.898 373.153,433.898 	"/>
	<polygon style="fill:#25B99A;" points="407.868,43.39 407.868,104.136 338.444,104.136 338.444,43.39 303.732,43.39 
		303.732,199.593 338.444,199.593 338.444,138.847 407.868,138.847 407.868,199.593 442.58,199.593 442.58,43.39 	"/>
</g>
</svg>